<svg xmlns="http://www.w3.org/2000/svg" viewBox="0 0 41 45">
    <path fill="#032F40" d="M39.71 12.97a8.7 8.7 0 0 0-3.77-3.46 13.08 13.08 0 0 0-6.05-1.27c-.5 0-.99.03-1.48.07a11.65 11.65 0 0 0-6.08-6.65A18.04 18.04 0 0 0 14.3 0a26 26 0 0 0-6.81.96A19.38 19.38 0 0 0 1.33 3.7C.85 4.03.51 4.4.3 4.81c-.2.39-.3.89-.3 1.5 0 .54.13 1 .38 1.39.25.36.6.54 1.03.54.38 0 .74-.12 1.06-.35 1.6-1.05 3.38-1.9 5.36-2.54 2-.64 4.02-.96 6.05-.96 3.14 0 5.58.83 7.3 2.5a8 8 0 0 1 1.84 2.78c-.82.37-1.63.79-2.41 1.3-2.79 1.8-5.02 4.52-6.69 8.16a29.15 29.15 0 0 0-2.34 9.77c-.35.02-.69.04-1.05.04-.96 0-1.83-.04-2.59-.12a98.9 98.9 0 0 1 1.41-9.85 73.2 73.2 0 0 1 1.98-8.28c.15-.46.23-.87.23-1.23 0-.87-.77-1.31-2.32-1.31-.86 0-1.56.13-2.09.38-.53.27-.89.72-1.06 1.36-.94 3.46-1.74 7.07-2.4 10.82a93.02 93.02 0 0 0-1.26 9.39c-.05.92.11 1.59.49 2 .38.41 1.08.68 2.09.81a36.4 36.4 0 0 0 6.47.35 17.6 17.6 0 0 0 1.15 6.12 9.5 9.5 0 0 0 3.12 4.23 7.37 7.37 0 0 0 4.3 1.39c2.81 0 4.54-1.78 5.17-5.35l1.64-9.28c2.94-.21 5.48-.89 7.61-2.04a12.51 12.51 0 0 0 4.87-4.47 11.23 11.23 0 0 0 1.67-6.01 9.44 9.44 0 0 0-1.3-4.88Zm-22.48 8.97c1.07-2.98 2.56-5.3 4.49-6.97.64-.55 1.33-1 2.04-1.37l.01.37c0 4.54-1.1 8.17-3.31 10.89a10.09 10.09 0 0 1-4.56 3.21c.24-2.2.67-4.26 1.33-6.13Zm1.56 18.25c-.46 0-.94-.33-1.45-1a9.38 9.38 0 0 1-1.22-2.89 16.98 16.98 0 0 1-.44-3.61 18.52 18.52 0 0 0 5.8-2.41l-1.25 7.25c-.33 1.77-.81 2.66-1.44 2.66Zm8.75-13.78.98-5.86a23.9 23.9 0 0 0 .77-8.06c1.94.11 3.39.63 4.36 1.59a5.39 5.39 0 0 1 1.67 4.12c.01 4.81-2.59 7.54-7.78 8.21Z"/>
</svg>