<?xml version="1.0" standalone="no"?>
<!DOCTYPE svg PUBLIC "-//W3C//DTD SVG 20010904//EN"
 "http://www.w3.org/TR/2001/REC-SVG-20010904/DTD/svg10.dtd">
<svg version="1.0" xmlns="http://www.w3.org/2000/svg"
 width="720.000000pt" height="720.000000pt" viewBox="0 0 720.000000 720.000000"
 preserveAspectRatio="xMidYMid meet">
<metadata>
Created by potrace 1.14, written by Peter Selinger 2001-2017
</metadata>
<g transform="translate(0.000000,720.000000) scale(0.100000,-0.100000)"
fill="#000000" stroke="none">
<path d="M2399 7196 c-2 -2 -48 -7 -101 -10 -122 -8 -393 -48 -518 -76 -52
-12 -104 -23 -115 -25 -31 -7 -218 -56 -235 -62 -8 -4 -19 -7 -25 -7 -30 -4
-221 -72 -328 -117 -275 -115 -541 -271 -644 -377 -32 -33 -67 -87 -61 -95 2
-2 -3 -11 -11 -21 -34 -40 -52 -244 -29 -319 5 -18 10 -36 12 -42 6 -26 47
-92 69 -113 35 -33 93 -51 153 -47 62 4 103 21 191 78 144 93 286 169 474 252
56 25 108 45 115 45 8 0 14 4 14 8 0 5 6 9 13 9 6 0 50 13 97 30 90 33 175 61
200 67 130 33 223 55 255 62 22 4 45 8 50 10 17 4 219 32 235 33 8 0 49 3 90
7 98 10 374 10 470 1 124 -12 221 -28 315 -52 83 -21 220 -68 223 -77 2 -4 9
-8 16 -8 20 0 167 -80 236 -129 77 -54 242 -217 285 -281 17 -25 33 -46 38
-48 4 -2 7 -8 7 -14 0 -5 13 -28 29 -51 16 -23 30 -46 31 -52 2 -5 14 -34 28
-63 13 -29 22 -55 21 -57 -2 -1 -67 -35 -143 -74 -135 -70 -314 -180 -358
-221 -12 -11 -25 -20 -28 -20 -4 0 -20 -11 -36 -25 -16 -14 -48 -40 -71 -58
-77 -59 -322 -314 -383 -398 -13 -19 -28 -38 -32 -44 -61 -75 -182 -258 -229
-345 -13 -25 -27 -47 -30 -50 -3 -3 -21 -36 -41 -75 -19 -38 -40 -79 -46 -90
-14 -25 -82 -174 -82 -180 0 -3 -8 -24 -18 -48 -27 -60 -62 -151 -62 -159 0
-4 -5 -19 -12 -35 -6 -15 -12 -31 -13 -35 -2 -5 -3 -9 -5 -10 -1 -2 -3 -10 -5
-19 -1 -9 -14 -49 -28 -90 -14 -41 -28 -86 -31 -101 -2 -15 -7 -32 -11 -38 -4
-6 -9 -23 -11 -38 -3 -15 -14 -63 -26 -107 -11 -44 -22 -91 -24 -105 -3 -14
-7 -33 -10 -42 -3 -10 -7 -30 -10 -45 -3 -16 -7 -39 -10 -53 -2 -14 -7 -40 -9
-59 -5 -34 -11 -68 -19 -106 -2 -11 -7 -49 -11 -85 -4 -36 -9 -74 -11 -85 -4
-21 -17 -173 -18 -212 0 -12 -6 -25 -13 -27 -15 -6 -491 1 -518 8 -11 2 -28 5
-38 5 -15 1 -17 8 -13 49 3 26 8 74 11 107 3 33 7 76 10 95 3 19 7 56 10 83
10 97 16 143 21 172 4 17 7 48 9 70 1 22 5 56 8 75 4 19 9 53 12 75 3 22 7 51
10 65 2 14 7 45 10 70 3 25 7 56 9 70 5 28 28 175 32 205 1 11 3 20 4 20 2 0
4 11 5 25 1 14 5 41 9 60 4 19 9 49 12 65 2 17 9 53 14 80 5 28 12 62 14 78 3
15 7 35 10 45 3 9 7 35 11 57 3 22 7 47 10 55 2 8 6 31 9 50 3 19 8 46 11 60
3 14 8 39 11 55 3 17 10 48 15 70 5 22 11 51 13 65 2 14 8 45 14 70 6 25 13
57 16 73 2 15 7 35 10 45 3 9 7 28 10 42 2 14 14 63 26 110 12 47 24 96 27
109 2 14 13 58 25 100 11 41 21 80 22 86 1 5 5 16 9 23 5 6 6 12 2 12 -3 0 1
16 9 35 9 20 15 36 15 38 -1 6 16 73 47 182 19 66 38 134 43 151 13 50 10 146
-6 178 -28 54 -88 96 -162 112 -115 24 -308 24 -416 -2 -75 -17 -169 -68 -206
-110 -33 -38 -73 -123 -84 -182 -2 -9 -4 -17 -5 -17 -1 0 -3 -7 -5 -15 -4 -17
-23 -96 -31 -125 -3 -11 -7 -27 -9 -35 -2 -8 -4 -15 -5 -15 -1 0 -3 -7 -5 -15
-1 -8 -22 -91 -44 -184 -50 -204 -62 -255 -67 -281 -2 -11 -17 -81 -34 -155
-17 -74 -32 -144 -34 -155 -2 -11 -9 -40 -14 -65 -6 -25 -13 -62 -16 -84 -4
-21 -8 -42 -11 -46 -2 -4 -6 -22 -9 -41 -2 -19 -16 -92 -31 -164 -14 -71 -27
-141 -29 -155 -2 -14 -8 -52 -14 -85 -6 -33 -14 -73 -17 -90 -3 -16 -8 -46
-11 -65 -4 -19 -7 -39 -9 -45 -6 -30 -16 -84 -19 -115 -3 -19 -9 -57 -15 -85
-5 -27 -12 -70 -16 -95 -3 -25 -8 -56 -10 -70 -2 -14 -7 -45 -10 -70 -4 -25
-9 -58 -12 -75 -2 -16 -6 -43 -7 -60 -2 -16 -6 -48 -9 -70 -8 -49 -24 -181
-32 -255 -3 -30 -8 -71 -10 -90 -3 -19 -7 -60 -10 -90 -5 -52 -12 -131 -21
-210 -20 -189 12 -341 84 -407 43 -38 193 -107 220 -101 4 1 32 -3 62 -10 50
-10 102 -17 200 -27 19 -2 60 -7 90 -10 157 -18 322 -26 570 -28 l215 -2 1
-45 c3 -62 14 -207 20 -255 5 -39 9 -71 19 -137 6 -47 52 -253 55 -253 1 0 4
-11 6 -25 12 -66 101 -307 149 -405 137 -277 369 -519 610 -635 39 -18 79 -37
90 -41 66 -23 86 -30 145 -45 94 -23 141 -28 275 -29 165 0 251 18 366 75 56
29 150 97 182 134 10 12 29 33 41 47 51 58 167 278 181 344 1 5 8 30 15 55 7
25 14 50 15 55 8 36 45 224 49 245 9 53 16 96 21 125 35 192 46 255 51 284 3
18 7 41 9 50 1 9 6 36 10 61 10 62 13 79 19 98 3 9 7 40 11 67 3 28 10 66 15
85 5 20 12 54 14 75 3 22 10 66 16 97 6 31 13 70 15 85 2 15 6 39 9 53 12 60
48 264 49 281 1 11 8 19 17 20 22 1 58 5 120 13 30 3 78 9 105 11 28 3 64 8
80 11 119 22 195 36 250 48 6 1 19 5 30 9 11 3 31 8 45 11 14 3 61 16 105 30
44 13 87 25 95 27 8 2 17 6 20 9 3 3 30 13 60 23 89 29 388 181 481 244 226
153 376 299 536 521 34 48 72 107 85 132 12 25 25 47 28 50 12 12 30 51 30 65
0 8 5 15 10 15 6 0 10 5 10 11 0 6 6 25 14 42 12 28 25 61 31 77 1 3 5 14 9
25 41 109 72 235 94 380 9 65 8 441 -1 480 -4 17 -10 44 -12 60 -12 75 -48
208 -75 270 -94 222 -187 363 -332 508 -43 42 -81 77 -84 77 -3 0 -16 10 -29
23 -33 31 -68 57 -77 57 -5 0 -17 8 -28 18 -18 17 -173 97 -270 140 -90 39
-315 105 -405 118 -16 3 -52 9 -80 14 -108 20 -319 27 -517 17 -54 -3 -98 -2
-98 3 0 5 -5 21 -12 37 -6 15 -12 30 -13 33 -3 13 -47 108 -60 130 -7 14 -20
39 -28 56 -15 32 -122 198 -144 224 -7 8 -39 47 -71 85 -214 255 -460 426
-804 559 -66 26 -238 84 -268 91 -8 2 -62 15 -120 28 -58 14 -121 28 -140 31
-19 3 -45 8 -57 10 -12 3 -48 7 -80 11 -32 3 -71 9 -88 12 -33 6 -571 14 -576
9z m2797 -2016 c27 -5 60 -12 74 -15 14 -3 34 -7 45 -9 144 -31 303 -121 414
-235 80 -83 178 -243 197 -321 2 -8 11 -42 21 -75 29 -101 24 -440 -8 -585 -6
-25 -12 -54 -15 -64 -21 -105 -108 -296 -177 -388 -83 -111 -173 -196 -280
-265 -64 -42 -244 -133 -270 -137 -7 -1 -16 -4 -22 -7 -10 -6 -126 -41 -180
-55 -16 -4 -34 -8 -40 -10 -15 -3 -71 -14 -152 -28 -87 -15 -83 -28 -49 151 3
11 8 43 12 70 3 26 8 57 10 68 3 11 7 35 10 54 3 18 7 43 10 54 2 12 6 39 9
62 4 22 9 54 12 70 3 17 7 39 8 50 2 11 9 52 15 90 7 39 14 79 15 90 10 69 30
167 56 278 17 71 32 136 34 145 10 57 19 110 21 127 1 11 7 52 12 90 30 193
36 300 35 583 l0 233 67 -5 c37 -3 89 -10 116 -16z m-1073 -257 c-1 -110 -11
-309 -17 -338 -2 -11 -7 -51 -11 -90 -4 -38 -9 -79 -12 -90 -2 -11 -6 -33 -7
-50 -4 -37 -32 -170 -52 -250 -9 -33 -18 -69 -20 -80 -3 -18 -7 -31 -30 -90
-4 -11 -8 -27 -10 -35 -2 -9 -11 -34 -20 -55 -10 -22 -18 -45 -20 -50 -4 -21
-90 -203 -127 -270 -36 -65 -81 -140 -87 -145 -3 -3 -21 -27 -40 -55 -19 -27
-38 -51 -42 -53 -4 -2 -8 -8 -8 -12 0 -21 -206 -234 -275 -285 -22 -17 -46
-35 -53 -42 -22 -21 -191 -123 -245 -147 -171 -78 -193 -85 -182 -53 3 7 7 30
9 52 6 56 15 115 32 220 20 122 23 140 40 215 8 36 17 76 20 90 2 14 7 33 10
42 3 9 7 25 9 36 5 30 44 160 72 242 76 225 213 520 317 680 141 217 357 456
510 565 84 61 217 143 231 144 6 1 9 -37 8 -96z m-378 -2617 c-5 -43 -13 -100
-20 -135 -1 -9 -6 -36 -10 -61 -4 -25 -9 -54 -11 -65 -4 -21 -9 -45 -24 -137
-6 -32 -12 -70 -15 -85 -3 -16 -7 -39 -10 -53 -5 -33 -35 -207 -41 -245 -3
-16 -7 -37 -9 -45 -2 -8 -7 -35 -11 -60 -3 -25 -8 -54 -10 -65 -36 -245 -91
-434 -147 -513 -104 -145 -272 -60 -411 209 -31 60 -56 110 -55 111 0 2 -5 17
-11 33 -7 17 -13 35 -14 40 -2 6 -6 17 -9 25 -9 20 -49 171 -52 190 0 8 -4 31
-8 50 -10 51 -16 88 -23 145 -3 28 -8 61 -10 75 -2 14 -7 75 -10 136 -7 123
-9 119 65 130 55 9 314 96 426 144 98 41 318 152 343 172 11 10 73 46 80 47 1
1 0 -19 -3 -43z"/>
</g>
</svg>
