<?xml version="1.0" standalone="no"?>
<!DOCTYPE svg PUBLIC "-//W3C//DTD SVG 20010904//EN"
 "http://www.w3.org/TR/2001/REC-SVG-20010904/DTD/svg10.dtd">
<svg version="1.0" xmlns="http://www.w3.org/2000/svg"
 width="1040.000000pt" height="1040.000000pt" viewBox="0 0 1040.000000 1040.000000"
 preserveAspectRatio="xMidYMid meet">
<metadata>
Created by potrace 1.14, written by Peter Selinger 2001-2017
</metadata>
<g transform="translate(0.000000,1040.000000) scale(0.100000,-0.100000)"
fill="#000000" stroke="none">
<path d="M3498 10395 c-2 -2 -46 -6 -98 -9 -52 -4 -111 -9 -130 -11 -19 -3
-62 -7 -95 -9 -33 -3 -69 -7 -80 -9 -11 -3 -46 -8 -79 -12 -32 -3 -70 -9 -85
-12 -14 -2 -42 -6 -61 -8 -19 -2 -35 -4 -35 -5 0 -2 -22 -6 -69 -14 -21 -4
-48 -8 -60 -11 -12 -3 -32 -7 -46 -10 -14 -2 -56 -11 -93 -20 -37 -8 -80 -17
-95 -20 -15 -2 -42 -9 -61 -15 -19 -5 -37 -8 -39 -5 -3 3 -10 1 -16 -4 -7 -6
-23 -12 -36 -15 -27 -5 -43 -10 -105 -26 -22 -6 -60 -16 -85 -21 -25 -6 -54
-14 -65 -19 -39 -16 -119 -40 -137 -40 -10 0 -18 -5 -18 -12 0 -6 -3 -9 -6 -5
-5 5 -152 -43 -214 -70 -8 -3 -17 -7 -20 -8 -34 -12 -183 -73 -235 -96 -27
-13 -56 -24 -63 -25 -8 -1 -22 -10 -31 -18 -10 -9 -22 -16 -28 -16 -11 0 -132
-62 -226 -116 -32 -19 -62 -34 -67 -34 -4 0 -10 -3 -12 -7 -4 -10 -107 -73
-119 -73 -5 0 -9 -4 -9 -10 0 -5 -6 -10 -14 -10 -8 0 -16 -3 -18 -7 -2 -5 -30
-26 -63 -48 -137 -92 -238 -228 -282 -380 -24 -84 -25 -377 -1 -395 4 -3 8
-17 10 -30 2 -14 10 -36 18 -50 8 -14 15 -27 15 -30 1 -12 42 -67 69 -92 62
-60 176 -88 265 -66 20 5 47 11 61 14 14 3 32 11 40 18 8 7 23 16 32 19 10 4
51 28 91 54 89 59 88 58 212 130 85 49 390 206 405 209 3 0 23 9 45 19 82 36
141 62 165 70 3 1 14 5 25 10 11 4 56 21 100 37 44 16 96 36 116 43 20 8 39
11 43 8 3 -4 6 -1 6 6 0 7 4 10 8 7 5 -3 20 1 35 9 15 8 27 12 27 9 0 -2 17 2
38 10 20 7 53 18 72 24 46 15 301 80 337 87 15 2 53 9 83 15 30 6 66 13 80 15
29 4 83 13 120 20 14 2 45 7 70 10 25 3 61 8 80 10 55 7 158 16 242 20 43 2
81 5 85 7 23 10 460 -3 558 -17 17 -3 50 -7 75 -9 65 -7 231 -38 305 -58 22
-5 47 -11 55 -13 8 -2 53 -16 100 -31 47 -15 87 -28 90 -28 44 -5 375 -173
391 -198 3 -5 10 -10 15 -9 5 0 38 -22 74 -49 248 -185 428 -403 562 -678 33
-68 58 -125 56 -127 -1 -2 -55 -28 -118 -59 -162 -78 -411 -220 -418 -238 -2
-4 -9 -8 -16 -8 -7 0 -22 -9 -34 -20 -12 -12 -22 -18 -22 -15 0 4 -7 0 -15 -7
-30 -28 -44 -38 -51 -38 -8 0 -88 -62 -92 -72 -2 -5 -8 -8 -13 -8 -6 0 -24
-13 -42 -30 -18 -16 -35 -30 -38 -30 -3 0 -20 -12 -36 -27 -17 -16 -63 -57
-104 -93 -102 -91 -339 -330 -326 -330 3 0 -9 -15 -27 -32 -17 -18 -47 -53
-66 -77 -19 -24 -40 -48 -45 -55 -6 -6 -28 -36 -50 -66 -50 -69 -56 -77 -77
-101 -10 -10 -18 -23 -18 -28 0 -5 -6 -16 -14 -24 -8 -8 -37 -50 -65 -93 -28
-43 -54 -83 -59 -89 -17 -22 -82 -137 -82 -145 0 -5 -4 -10 -9 -12 -9 -3 -64
-102 -114 -203 -16 -33 -34 -63 -39 -66 -5 -3 -9 -9 -9 -13 1 -3 -15 -41 -36
-84 -20 -42 -37 -79 -38 -82 -1 -3 -14 -32 -29 -65 -15 -33 -34 -73 -41 -90
-8 -16 -24 -57 -36 -90 -12 -33 -25 -64 -30 -70 -5 -5 -9 -14 -9 -21 0 -6 -8
-29 -17 -50 -9 -22 -17 -43 -19 -49 -1 -5 -20 -64 -42 -130 -22 -66 -49 -151
-60 -190 -23 -80 -52 -183 -58 -205 -2 -8 -14 -60 -28 -115 -13 -55 -32 -136
-41 -180 -16 -76 -20 -96 -29 -147 -2 -13 -7 -34 -10 -48 -4 -14 -8 -41 -10
-60 -3 -19 -5 -35 -6 -35 -2 0 -13 -75 -24 -160 -3 -22 -9 -56 -12 -75 -11
-61 -12 -74 -19 -135 -3 -33 -8 -73 -10 -90 -3 -16 -7 -57 -11 -90 -3 -33 -7
-73 -10 -90 -2 -16 -4 -49 -5 -72 -1 -36 -5 -42 -27 -46 -41 -8 -576 -2 -589
6 -8 5 -13 3 -13 -5 0 -8 -3 -9 -8 -3 -4 6 -23 11 -42 12 -172 8 -163 3 -155
72 3 32 8 80 11 107 2 27 6 67 8 89 2 22 7 72 11 110 3 39 8 81 11 95 2 14 6
53 10 88 3 35 7 73 10 85 2 12 6 47 9 77 3 30 8 71 11 90 3 19 7 51 10 70 2
19 7 53 10 75 4 22 8 54 9 70 2 17 4 30 5 30 1 0 3 16 4 35 1 20 5 40 8 46 4
6 5 19 4 30 -2 10 -1 23 2 29 3 5 7 21 8 35 1 24 9 79 20 145 3 17 7 46 10 65
2 19 11 73 19 120 8 47 17 103 21 125 3 22 8 49 10 60 2 11 6 38 9 60 3 22 9
47 12 55 3 8 5 19 4 23 -1 5 3 34 9 65 6 32 13 71 15 87 3 17 14 75 25 130 11
55 22 117 26 139 3 21 8 47 10 57 2 11 6 29 9 42 3 12 8 36 10 52 3 17 8 37
10 45 2 8 6 31 9 50 3 19 12 67 21 105 13 59 49 231 60 286 4 17 44 203 50
229 2 8 17 72 34 142 17 69 32 137 35 150 3 13 11 48 20 78 8 30 12 58 10 62
-3 5 -1 8 4 8 5 0 9 6 9 13 0 6 8 41 18 77 9 36 19 76 22 89 2 14 6 29 9 33 5
8 46 150 73 253 5 17 18 57 29 91 12 34 26 81 32 105 6 24 13 53 15 64 6 22
17 116 19 155 1 14 -3 31 -8 38 -4 6 -6 12 -2 12 3 0 -2 19 -11 43 -18 46 -94
124 -130 133 -13 4 -23 11 -23 17 0 6 -3 8 -6 4 -4 -3 -23 0 -43 8 -72 27
-159 37 -316 38 -150 1 -212 -6 -335 -38 -36 -9 -69 -18 -75 -19 -32 -6 -129
-64 -168 -99 -44 -40 -125 -147 -111 -147 4 0 2 -6 -4 -13 -10 -12 -64 -199
-65 -224 0 -7 -4 -13 -9 -13 -5 0 -7 -4 -4 -8 2 -4 -5 -41 -16 -82 -11 -41
-21 -82 -23 -90 -3 -8 -14 -53 -26 -100 -11 -47 -22 -89 -23 -95 -1 -5 -5 -19
-9 -30 -8 -27 -19 -76 -20 -97 -1 -10 -4 -18 -8 -18 -4 0 -6 -8 -4 -17 1 -10
0 -22 -4 -28 -3 -5 -6 -13 -7 -17 -1 -5 -3 -9 -4 -10 -1 -2 -3 -14 -5 -28 -1
-14 -17 -81 -34 -150 -17 -69 -32 -136 -35 -150 -2 -14 -5 -26 -7 -27 -1 -2
-3 -12 -4 -23 -1 -11 -3 -21 -5 -22 -2 -3 -5 -16 -13 -58 -11 -54 -49 -226
-66 -300 -6 -25 -13 -61 -16 -80 -12 -67 -13 -75 -15 -75 -1 0 -3 -11 -6 -25
-4 -22 -43 -219 -49 -245 -1 -5 -5 -28 -9 -50 -8 -40 -34 -172 -42 -210 -2
-11 -6 -39 -9 -63 -2 -23 -7 -47 -11 -53 -3 -6 -8 -25 -9 -42 -4 -42 -9 -68
-35 -210 -11 -64 -23 -133 -26 -153 -2 -20 -6 -39 -8 -43 -2 -3 -7 -30 -11
-60 -4 -30 -9 -63 -11 -75 -2 -12 -7 -37 -9 -56 -7 -43 -23 -145 -31 -185 -5
-29 -7 -42 -19 -135 -3 -25 -7 -54 -10 -66 -4 -19 -43 -285 -50 -349 -2 -16
-7 -50 -10 -75 -4 -25 -8 -58 -10 -75 -2 -16 -4 -30 -5 -30 -1 0 -3 -22 -5
-50 -1 -27 -5 -68 -8 -90 -3 -22 -9 -67 -12 -100 -4 -33 -8 -71 -10 -85 -2
-14 -7 -56 -10 -95 -4 -38 -8 -81 -10 -96 -6 -32 -15 -152 -20 -249 -2 -41 -5
-77 -6 -80 -5 -16 -4 -38 3 -58 4 -13 5 -21 0 -18 -21 13 16 -191 46 -252 47
-95 87 -137 181 -186 62 -32 169 -70 230 -81 14 -3 36 -7 47 -9 59 -12 108
-19 204 -30 93 -11 123 -14 173 -20 74 -9 125 -14 212 -22 270 -22 435 -29
721 -28 l270 1 0 -64 c-1 -34 1 -63 4 -63 3 0 5 -24 4 -52 -1 -29 3 -63 7 -75
5 -13 4 -25 -2 -28 -5 -4 -6 -11 -2 -18 6 -11 10 -35 14 -114 1 -24 5 -43 8
-43 3 0 7 -24 7 -53 2 -50 31 -244 39 -257 2 -4 6 -24 9 -46 14 -109 81 -353
137 -504 84 -225 239 -517 349 -661 96 -125 220 -258 316 -339 45 -38 177
-132 194 -138 8 -3 22 -11 30 -18 22 -18 163 -87 245 -119 130 -50 145 -55
145 -49 0 4 6 2 13 -3 6 -6 20 -9 30 -8 9 2 17 -1 17 -6 0 -5 3 -8 8 -7 4 1
52 -6 107 -17 72 -14 147 -19 265 -19 193 -1 297 11 390 43 37 13 60 20 65 21
26 1 236 123 243 142 2 4 8 8 13 8 16 0 143 132 192 200 26 36 52 70 57 77 6
7 10 15 10 18 0 3 10 22 23 43 25 39 113 243 133 307 16 49 75 285 79 309 2
17 4 31 5 31 2 0 7 25 14 72 3 21 8 52 11 68 13 66 15 81 21 115 3 19 8 46 10
60 3 14 7 38 10 53 2 16 15 90 29 165 14 75 28 153 31 172 3 19 12 71 19 115
8 44 17 97 21 119 3 21 8 48 10 60 2 11 6 35 9 51 3 17 8 44 12 60 3 17 7 39
9 50 2 16 24 145 50 285 2 14 7 41 10 60 3 19 8 43 10 53 3 10 8 35 10 55 3
20 11 73 19 117 13 73 18 100 31 175 2 14 8 45 13 70 10 50 18 95 27 155 3 22
7 41 8 42 0 1 42 4 91 8 50 4 106 8 125 11 19 2 53 6 75 8 59 6 138 17 155 21
8 2 35 7 60 10 25 4 87 15 138 26 51 11 102 21 113 22 10 1 19 4 19 8 0 4 8 6
18 4 9 -1 23 2 30 8 6 5 12 7 12 4 0 -3 12 -2 28 3 15 4 70 20 122 35 52 15
104 31 115 35 11 5 52 19 90 31 175 55 538 220 688 311 43 27 80 48 82 48 12
0 260 181 334 244 56 48 319 314 346 351 17 21 37 46 45 55 23 23 180 247 180
256 0 4 6 15 14 23 17 20 127 223 131 241 1 3 11 26 23 52 24 50 45 100 46
108 1 3 6 19 13 35 19 50 26 70 29 80 1 6 12 42 24 80 12 39 23 80 26 92 2 12
9 34 14 49 6 15 8 29 6 31 -3 3 -1 15 4 28 8 22 22 95 23 123 0 6 3 12 6 12 3
0 7 12 7 28 1 15 5 61 10 102 11 93 11 540 1 595 -5 22 -10 56 -12 75 -2 19
-7 51 -11 70 -4 19 -8 45 -8 58 -1 12 -4 22 -7 22 -4 0 -9 15 -13 33 -3 17 -8
41 -10 52 -7 36 -48 158 -78 235 -29 74 -137 300 -149 310 -3 3 -14 21 -25 40
-23 41 -16 31 -108 155 -81 109 -186 221 -286 304 -35 29 -70 59 -77 67 -8 8
-18 14 -22 14 -4 0 -16 8 -27 18 -33 28 -83 62 -93 62 -5 0 -11 4 -13 8 -3 8
-206 127 -217 127 -3 1 -17 7 -31 15 -14 8 -27 15 -30 16 -3 0 -31 13 -63 27
-32 15 -64 27 -72 27 -8 0 -15 5 -15 11 0 6 -7 9 -15 5 -8 -3 -15 -2 -15 3 0
4 -6 8 -12 9 -7 0 -47 12 -88 27 -89 31 -245 73 -295 79 -11 1 -45 8 -75 14
-58 12 -106 20 -180 28 -117 12 -140 15 -210 20 -103 8 -436 9 -541 1 l-85 -7
-16 38 c-62 149 -88 208 -130 290 -55 107 -71 135 -78 142 -11 11 -70 112 -70
120 0 5 -4 10 -8 12 -5 2 -25 27 -45 56 -100 147 -214 273 -416 462 -70 65
-322 250 -341 250 -6 0 -10 5 -10 11 0 5 -4 8 -9 5 -5 -4 -11 -2 -13 2 -6 17
-171 104 -393 207 -52 24 -95 42 -95 39 0 -3 -10 1 -22 8 -13 7 -25 13 -28 13
-4 0 -136 46 -180 63 -8 3 -18 6 -22 7 -5 2 -11 4 -15 5 -5 2 -12 4 -18 5 -5
1 -17 5 -25 8 -18 7 -193 54 -230 61 -14 2 -47 9 -75 15 -27 6 -61 13 -75 15
-14 3 -25 5 -25 6 0 2 -32 8 -80 15 -22 3 -51 7 -65 9 -50 8 -126 19 -155 22
-16 1 -61 6 -100 9 -38 4 -88 9 -110 11 -46 6 -672 14 -677 9z m3902 -2900
c25 -3 52 -5 60 -6 8 0 65 -12 125 -25 284 -62 482 -162 650 -329 75 -75 163
-181 178 -215 4 -8 17 -31 29 -50 37 -61 85 -164 99 -210 7 -25 17 -51 22 -58
5 -7 7 -15 4 -19 -4 -3 -2 -13 2 -22 5 -9 12 -32 15 -51 3 -19 8 -46 11 -60 3
-14 8 -43 11 -65 6 -45 6 -354 0 -400 -2 -16 -7 -62 -11 -102 -5 -62 -19 -143
-40 -248 -3 -16 -13 -55 -22 -85 -9 -30 -17 -60 -18 -65 -2 -6 -21 -57 -44
-115 -43 -110 -122 -259 -172 -322 -16 -20 -29 -39 -29 -41 0 -23 -195 -216
-293 -290 -90 -69 -245 -164 -259 -159 -4 1 -8 -2 -8 -8 0 -5 -4 -10 -10 -10
-5 0 -37 -13 -72 -29 -110 -50 -136 -61 -147 -61 -6 0 -19 -4 -29 -10 -17 -9
-62 -24 -192 -60 -83 -23 -241 -57 -305 -65 -16 -2 -51 -8 -77 -13 l-48 -9 0
28 c0 15 4 50 10 76 5 26 11 62 14 78 2 17 10 62 16 100 15 88 19 112 24 155
3 19 5 35 6 35 2 0 5 19 14 75 10 60 16 94 23 130 3 19 7 44 8 55 3 30 23 149
39 230 2 11 7 40 10 65 3 25 8 54 10 65 2 11 7 40 11 65 4 25 9 52 10 61 4 20
15 86 20 119 7 40 13 63 24 93 6 15 9 27 6 27 -2 0 2 21 10 48 11 40 18 71 40
182 2 8 4 15 5 15 1 0 3 11 5 25 2 14 6 39 9 55 13 61 16 81 21 120 3 22 8 51
10 65 12 65 19 121 30 230 3 36 8 74 10 85 8 40 19 241 19 377 1 75 3 135 7
133 3 -2 4 11 2 28 -2 18 -5 95 -8 172 -3 77 -6 159 -8 183 l-2 43 65 -6 c36
-3 85 -7 110 -10z m-1448 -257 c2 -7 4 -76 3 -153 -3 -213 -19 -449 -40 -602
-3 -18 -7 -48 -9 -65 -16 -121 -18 -132 -42 -253 -8 -44 -18 -91 -20 -105 -3
-14 -10 -43 -15 -65 -5 -22 -12 -51 -15 -65 -3 -14 -16 -62 -30 -107 -14 -45
-26 -86 -26 -90 0 -13 -77 -229 -99 -278 -4 -11 -27 -63 -49 -115 -36 -81
-116 -237 -178 -345 -24 -42 -160 -243 -172 -255 -3 -3 -19 -23 -35 -45 -105
-141 -282 -318 -430 -430 -15 -11 -32 -25 -39 -32 -17 -15 -170 -115 -221
-143 -118 -66 -285 -144 -318 -149 -4 0 -21 -8 -37 -16 -27 -14 -33 -13 -32 5
2 31 14 157 18 173 7 39 16 102 19 132 2 17 4 30 5 30 1 0 3 12 5 26 6 43 15
102 20 129 2 14 7 36 9 50 2 14 9 45 14 70 6 25 13 61 16 80 3 19 12 62 20 95
8 33 17 71 20 85 3 14 9 40 15 58 5 17 7 32 5 32 -3 0 -2 6 3 13 4 6 8 19 10
27 1 9 18 69 38 135 20 66 41 138 47 160 6 22 16 43 22 47 6 4 8 8 4 8 -4 0 6
37 23 83 17 45 32 87 33 92 1 6 10 25 19 42 10 18 18 36 18 40 2 10 17 52 28
78 87 194 141 303 198 404 29 51 53 96 53 99 0 3 11 19 24 36 12 17 31 47 41
66 10 19 21 37 24 40 3 3 28 38 55 79 27 40 55 78 61 85 7 6 14 16 16 22 5 14
57 80 87 110 12 13 22 26 22 29 0 3 17 24 38 47 20 22 52 57 70 77 67 74 95
101 103 101 5 0 9 7 9 15 0 8 4 15 8 15 5 0 30 20 56 45 27 25 52 45 58 45 5
0 6 5 3 10 -3 6 -3 10 2 10 4 0 33 20 63 45 88 72 366 253 391 255 4 0 9 -6
11 -12z m-532 -3885 c-5 -21 -11 -56 -15 -78 -3 -22 -8 -53 -12 -70 -3 -16 -7
-41 -8 -55 -1 -14 -3 -25 -5 -25 -1 0 -3 -9 -4 -20 -3 -22 -16 -99 -22 -130
-4 -19 -8 -45 -19 -120 -3 -16 -7 -41 -10 -55 -6 -31 -23 -124 -30 -170 -3
-19 -8 -42 -10 -50 -2 -8 -7 -34 -10 -58 -3 -24 -7 -53 -10 -65 -5 -26 -16
-92 -20 -127 -2 -14 -4 -25 -5 -25 -2 0 -6 -23 -14 -72 -3 -21 -8 -51 -11 -68
-3 -16 -7 -43 -10 -60 -5 -31 -7 -40 -20 -110 -4 -22 -9 -49 -11 -60 -2 -11
-6 -38 -9 -60 -4 -22 -8 -49 -10 -60 -2 -11 -6 -37 -10 -59 -4 -21 -9 -48 -11
-60 -3 -11 -9 -41 -14 -66 -41 -195 -93 -334 -161 -426 -47 -64 -106 -95 -169
-90 -25 2 -45 5 -45 6 0 1 -9 3 -20 5 -11 2 -21 9 -23 15 -2 5 -8 8 -12 5 -9
-5 -108 70 -145 110 -60 64 -175 244 -175 273 0 6 -4 12 -8 14 -5 2 -23 41
-41 88 -18 47 -37 94 -41 105 -16 37 -53 150 -55 165 -1 8 -5 22 -8 30 -3 8
-14 44 -23 80 -24 95 -27 112 -37 175 -3 17 -10 57 -16 90 -22 128 -34 244
-47 472 -5 89 -4 92 18 99 25 8 32 10 65 18 82 18 415 120 438 134 6 4 15 7
20 8 6 1 24 8 40 15 17 6 35 13 40 14 36 9 402 183 494 235 15 8 58 33 96 55
39 21 76 45 83 52 27 26 40 16 32 -24z"/>
</g>
</svg>
